<svg width="172" height="25" viewBox="0 0 172 25" fill="none" xmlns="http://www.w3.org/2000/svg">
<path d="M9.472 19.92C10.1867 19.92 10.768 19.8293 11.216 19.648C11.6747 19.4667 12.032 19.232 12.288 18.944C12.544 18.656 12.72 18.3307 12.816 17.968C12.912 17.6053 12.96 17.2373 12.96 16.864C12.96 16.4373 12.9013 16.0533 12.784 15.712C12.6773 15.3707 12.4853 15.0827 12.208 14.848C11.9413 14.6133 11.584 14.432 11.136 14.304C10.688 14.176 10.1227 14.112 9.44 14.112H5.664V19.92H9.472ZM5.664 4.736V10.496H8.48C9.07733 10.496 9.616 10.4533 10.096 10.368C10.576 10.2827 10.9813 10.1333 11.312 9.92C11.6533 9.70667 11.9093 9.41333 12.08 9.04C12.2613 8.66667 12.352 8.19733 12.352 7.632C12.352 7.07733 12.2827 6.61867 12.144 6.256C12.0053 5.88267 11.792 5.584 11.504 5.36C11.216 5.136 10.848 4.976 10.4 4.88C9.96267 4.784 9.44 4.736 8.832 4.736H5.664ZM8.832 0.688C10.4427 0.688 11.8133 0.837333 12.944 1.136C14.0747 1.43467 14.9973 1.856 15.712 2.4C16.4267 2.944 16.944 3.60533 17.264 4.384C17.5947 5.16267 17.76 6.032 17.76 6.992C17.76 7.51467 17.6853 8.02133 17.536 8.512C17.3867 8.992 17.152 9.44533 16.832 9.872C16.512 10.288 16.1013 10.672 15.6 11.024C15.0987 11.376 14.496 11.68 13.792 11.936C15.328 12.3093 16.464 12.912 17.2 13.744C17.936 14.576 18.304 15.6533 18.304 16.976C18.304 17.968 18.112 18.8907 17.728 19.744C17.344 20.5973 16.7787 21.344 16.032 21.984C15.296 22.6133 14.384 23.1093 13.296 23.472C12.208 23.824 10.9653 24 9.568 24H0.256V0.688H8.832ZM29.2775 11.648C30.0135 11.648 30.6375 11.5573 31.1495 11.376C31.6722 11.184 32.0988 10.9227 32.4295 10.592C32.7602 10.2613 33.0002 9.87733 33.1495 9.44C33.2988 8.992 33.3735 8.512 33.3735 8C33.3735 6.976 33.0375 6.176 32.3655 5.6C31.7042 5.024 30.6748 4.736 29.2775 4.736H27.1015V11.648H29.2775ZM40.7655 24H35.8695C34.9628 24 34.3122 23.6587 33.9175 22.976L30.0455 16.208C29.8642 15.92 29.6615 15.712 29.4375 15.584C29.2135 15.4453 28.8935 15.376 28.4775 15.376H27.1015V24H21.6935V0.688H29.2775C30.9628 0.688 32.3975 0.864 33.5815 1.216C34.7762 1.55733 35.7468 2.03733 36.4935 2.656C37.2508 3.27467 37.8002 4.00533 38.1415 4.848C38.4828 5.69067 38.6535 6.608 38.6535 7.6C38.6535 8.35733 38.5522 9.072 38.3495 9.744C38.1468 10.416 37.8482 11.04 37.4535 11.616C37.0588 12.1813 36.5682 12.688 35.9815 13.136C35.4055 13.584 34.7388 13.952 33.9815 14.24C34.3335 14.4213 34.6642 14.6507 34.9735 14.928C35.2828 15.1947 35.5602 15.5147 35.8055 15.888L40.7655 24ZM48.1648 24H42.7248V0.688H48.1648V24ZM73.8143 12.336C73.8143 14.0213 73.5209 15.5787 72.9343 17.008C72.3583 18.4267 71.5423 19.6587 70.4863 20.704C69.4303 21.7387 68.1556 22.5493 66.6623 23.136C65.1796 23.712 63.5316 24 61.7183 24H52.6623V0.688H61.7183C63.5316 0.688 65.1796 0.981333 66.6623 1.568C68.1556 2.15466 69.4303 2.96533 70.4863 4C71.5423 5.03467 72.3583 6.26667 72.9343 7.696C73.5209 9.11467 73.8143 10.6613 73.8143 12.336ZM68.2783 12.336C68.2783 11.184 68.1289 10.144 67.8303 9.216C67.5316 8.288 67.0996 7.504 66.5343 6.864C65.9796 6.21333 65.2969 5.71733 64.4863 5.376C63.6756 5.024 62.7529 4.848 61.7183 4.848H58.1023V19.84H61.7183C62.7529 19.84 63.6756 19.6693 64.4863 19.328C65.2969 18.976 65.9796 18.48 66.5343 17.84C67.0996 17.1893 67.5316 16.4 67.8303 15.472C68.1289 14.544 68.2783 13.4987 68.2783 12.336ZM88.206 11.92H96.494V21.76C95.2993 22.6347 94.0247 23.2693 92.67 23.664C91.326 24.0587 89.918 24.256 88.446 24.256C86.526 24.256 84.7767 23.9573 83.198 23.36C81.63 22.752 80.286 21.92 79.166 20.864C78.046 19.7973 77.182 18.5387 76.574 17.088C75.966 15.6267 75.662 14.0427 75.662 12.336C75.662 10.5973 75.95 9.00267 76.526 7.552C77.102 6.09067 77.9233 4.832 78.99 3.776C80.0673 2.72 81.3633 1.89867 82.878 1.312C84.4033 0.725332 86.1047 0.431999 87.982 0.431999C88.9527 0.431999 89.8647 0.511999 90.718 0.671999C91.5713 0.831999 92.3553 1.05067 93.07 1.328C93.7953 1.60533 94.4567 1.936 95.054 2.32C95.6513 2.704 96.1847 3.12 96.654 3.568L95.086 5.952C94.8407 6.32533 94.5207 6.55467 94.126 6.64C93.742 6.72533 93.326 6.62933 92.878 6.352C92.4513 6.096 92.046 5.87733 91.662 5.696C91.2887 5.504 90.9047 5.34933 90.51 5.232C90.1153 5.11467 89.6993 5.02933 89.262 4.976C88.8247 4.92267 88.334 4.896 87.79 4.896C86.7767 4.896 85.8647 5.07733 85.054 5.44C84.2433 5.792 83.55 6.29333 82.974 6.944C82.4087 7.59467 81.9713 8.37867 81.662 9.296C81.3527 10.2027 81.198 11.216 81.198 12.336C81.198 13.5733 81.3687 14.672 81.71 15.632C82.0513 16.592 82.5313 17.4027 83.15 18.064C83.7793 18.7253 84.526 19.232 85.39 19.584C86.2647 19.9253 87.23 20.096 88.286 20.096C88.9367 20.096 89.5233 20.032 90.046 19.904C90.5793 19.776 91.0967 19.6053 91.598 19.392V15.856H89.294C88.9527 15.856 88.686 15.7653 88.494 15.584C88.302 15.4027 88.206 15.1733 88.206 14.896V11.92ZM105.571 4.848V10.288H112.899V14.288H105.571V19.84H115.139V24H100.131V0.688H115.139V4.848H105.571ZM117.227 21.488C117.227 21.104 117.296 20.7467 117.435 20.416C117.584 20.0853 117.781 19.7973 118.027 19.552C118.283 19.3067 118.581 19.1147 118.923 18.976C119.264 18.8267 119.637 18.752 120.043 18.752C120.437 18.752 120.805 18.8267 121.147 18.976C121.488 19.1147 121.787 19.3067 122.043 19.552C122.299 19.7973 122.496 20.0853 122.635 20.416C122.784 20.7467 122.859 21.104 122.859 21.488C122.859 21.872 122.784 22.2347 122.635 22.576C122.496 22.9067 122.299 23.1947 122.043 23.44C121.787 23.6853 121.488 23.8773 121.147 24.016C120.805 24.1547 120.437 24.224 120.043 24.224C119.637 24.224 119.264 24.1547 118.923 24.016C118.581 23.8773 118.283 23.6853 118.027 23.44C117.781 23.1947 117.584 22.9067 117.435 22.576C117.296 22.2347 117.227 21.872 117.227 21.488ZM146.417 5.424C146.257 5.68 146.087 5.872 145.905 6C145.735 6.128 145.511 6.192 145.233 6.192C144.988 6.192 144.721 6.11733 144.433 5.968C144.156 5.808 143.836 5.632 143.473 5.44C143.121 5.248 142.716 5.07733 142.257 4.928C141.799 4.768 141.276 4.688 140.689 4.688C139.676 4.688 138.919 4.90667 138.417 5.344C137.927 5.77067 137.681 6.352 137.681 7.088C137.681 7.55733 137.831 7.94667 138.129 8.256C138.428 8.56533 138.817 8.832 139.297 9.056C139.788 9.28 140.343 9.488 140.961 9.68C141.591 9.86133 142.231 10.0693 142.881 10.304C143.532 10.528 144.167 10.7947 144.785 11.104C145.415 11.4133 145.969 11.808 146.449 12.288C146.94 12.768 147.335 13.3547 147.633 14.048C147.932 14.7307 148.081 15.5573 148.081 16.528C148.081 17.6053 147.895 18.6133 147.521 19.552C147.148 20.4907 146.604 21.312 145.889 22.016C145.185 22.7093 144.311 23.2587 143.265 23.664C142.231 24.0587 141.052 24.256 139.729 24.256C139.004 24.256 138.263 24.1813 137.505 24.032C136.759 23.8827 136.033 23.6747 135.329 23.408C134.625 23.1307 133.964 22.8053 133.345 22.432C132.727 22.0587 132.188 21.6427 131.729 21.184L133.329 18.656C133.457 18.4747 133.623 18.3253 133.825 18.208C134.039 18.08 134.268 18.016 134.513 18.016C134.833 18.016 135.153 18.1173 135.473 18.32C135.804 18.5227 136.172 18.7467 136.577 18.992C136.993 19.2373 137.468 19.4613 138.001 19.664C138.535 19.8667 139.164 19.968 139.889 19.968C140.871 19.968 141.633 19.7547 142.177 19.328C142.721 18.8907 142.993 18.2027 142.993 17.264C142.993 16.72 142.844 16.2773 142.545 15.936C142.247 15.5947 141.852 15.312 141.361 15.088C140.881 14.864 140.332 14.6667 139.713 14.496C139.095 14.3253 138.46 14.1387 137.809 13.936C137.159 13.7227 136.524 13.4667 135.905 13.168C135.287 12.8587 134.732 12.4587 134.241 11.968C133.761 11.4667 133.372 10.848 133.073 10.112C132.775 9.36533 132.625 8.448 132.625 7.36C132.625 6.48533 132.801 5.632 133.153 4.8C133.505 3.968 134.023 3.22666 134.705 2.576C135.388 1.92533 136.225 1.408 137.217 1.024C138.209 0.629332 139.345 0.431999 140.625 0.431999C141.34 0.431999 142.033 0.490666 142.705 0.608C143.388 0.714666 144.033 0.879999 144.641 1.104C145.249 1.31733 145.815 1.57867 146.337 1.888C146.871 2.18667 147.345 2.528 147.761 2.912L146.417 5.424ZM163.045 15.088L160.885 8.704C160.725 8.29867 160.554 7.824 160.373 7.28C160.191 6.72533 160.01 6.128 159.829 5.488C159.669 6.13867 159.498 6.74133 159.317 7.296C159.135 7.85067 158.965 8.33067 158.805 8.736L156.661 15.088H163.045ZM171.637 24H167.445C166.975 24 166.597 23.8933 166.309 23.68C166.021 23.456 165.802 23.1733 165.653 22.832L164.277 18.768H155.413L154.037 22.832C153.919 23.1307 153.706 23.4027 153.397 23.648C153.098 23.8827 152.725 24 152.277 24H148.053L157.077 0.688H162.613L171.637 24Z" fill="url(#paint0_linear_142_263)"/>
<defs>
<linearGradient id="paint0_linear_142_263" x1="86.5" y1="-21" x2="86.5" y2="39" gradientUnits="userSpaceOnUse">
<stop stop-color="#0B8F23"/>
<stop offset="1" stop-color="#03290A"/>
</linearGradient>
</defs>
</svg>
