<svg width="52" height="52" viewBox="0 0 52 52" fill="none" xmlns="http://www.w3.org/2000/svg">
<path d="M0 4C0 1.79086 1.79086 0 4 0H48C50.2091 0 52 1.79086 52 4V48C52 50.2091 50.2091 52 48 52H4C1.79086 52 0 50.2091 0 48V4Z" fill="#E6EAF0"/>
<g clip-path="url(#clip0_181_24)">
<path d="M35 17C35.552 17 36 17.448 36 18V32C36 32.552 35.552 33 35 33H20.455L16 36.5V18C16 17.448 16.448 17 17 17H35ZM24.962 22.1L24.515 21.412C22.728 22.187 21.5 23.755 21.5 25.505C21.5 26.5 21.777 27.114 22.292 27.661C22.616 28.005 23.129 28.25 23.666 28.25C24.632 28.25 25.416 27.466 25.416 26.5C25.416 25.58 24.705 24.839 23.802 24.755C23.642 24.74 23.478 24.743 23.323 24.765V24.673C23.329 24.251 23.415 23.04 24.777 22.207L24.962 22.1L24.515 21.412L24.962 22.1ZM29.515 21.412C27.728 22.187 26.5 23.755 26.5 25.505C26.5 26.5 26.777 27.114 27.292 27.661C27.616 28.005 28.129 28.25 28.666 28.25C29.632 28.25 30.416 27.466 30.416 26.5C30.416 25.58 29.705 24.839 28.802 24.755C28.642 24.74 28.478 24.743 28.323 24.765C28.323 24.452 28.294 23.003 29.962 22.1L29.515 21.412Z" fill="#8AA0B8"/>
</g>
<defs>
<clipPath id="clip0_181_24">
<rect width="24" height="24" fill="white" transform="translate(14 14)"/>
</clipPath>
</defs>
</svg>
